<svg width="19" height="18" viewBox="0 0 19 18" fill="none" xmlns="http://www.w3.org/2000/svg">
<path d="M4.78204 8.453C7.0856 8.453 8.953 6.5856 8.953 4.28204C8.953 1.97848 7.0856 0.111084 4.78204 0.111084C2.47848 0.111084 0.611084 1.97848 0.611084 4.28204C0.611084 6.5856 2.47848 8.453 4.78204 8.453Z" fill="white"/>
<path d="M14.2178 8.453C16.5214 8.453 18.3888 6.5856 18.3888 4.28204C18.3888 1.97848 16.5214 0.111084 14.2178 0.111084C11.9143 0.111084 10.0469 1.97848 10.0469 4.28204C10.0469 6.5856 11.9143 8.453 14.2178 8.453Z" fill="white"/>
<path d="M14.2178 17.8889C16.5214 17.8889 18.3888 16.0215 18.3888 13.718C18.3888 11.4144 16.5214 9.547 14.2178 9.547C11.9143 9.547 10.0469 11.4144 10.0469 13.718C10.0469 16.0215 11.9143 17.8889 14.2178 17.8889Z" fill="white"/>
</svg>
